<?xml version="1.0" encoding="utf-8"?>
<!-- Generator: Adobe Illustrator 14.0.0, SVG Export Plug-In . SVG Version: 6.00 Build 43363)  -->
<!DOCTYPE svg PUBLIC "-//W3C//DTD SVG 1.1//EN" "http://www.w3.org/Graphics/SVG/1.1/DTD/svg11.dtd">
<svg version="1.1" id="Ebene_1" xmlns="http://www.w3.org/2000/svg" xmlns:xlink="http://www.w3.org/1999/xlink" x="0px" y="0px"
	 width="201px" height="124px" viewBox="0 0 201 124" enable-background="new 0 0 201 124" xml:space="preserve">
<g>
	<linearGradient id="SVGID_1_" gradientUnits="userSpaceOnUse" x1="47.0591" y1="67.5117" x2="47.0591" y2="54.6143">
		<stop  offset="0.0056" style="stop-color:#3266A9"/>
		<stop  offset="1" style="stop-color:#0099FF"/>
	</linearGradient>
	<path fill="url(#SVGID_1_)" d="M50.282,55.502c-0.784-0.592-2.104-0.888-3.961-0.888h-1.376l-2.283,12.898h1.779
		c3.76,0,6.032-2.245,6.815-6.733c0.134-0.871,0.202-1.642,0.202-2.313C51.457,57.081,51.064,56.093,50.282,55.502z"/>
	<linearGradient id="SVGID_2_" gradientUnits="userSpaceOnUse" x1="65.9609" y1="49.104" x2="65.9609" y2="36.9434">
		<stop  offset="0.0056" style="stop-color:#3266A9"/>
		<stop  offset="1" style="stop-color:#0099FF"/>
	</linearGradient>
	<path fill="url(#SVGID_2_)" d="M65.72,40.482c1.074,0,1.611,0.381,1.611,1.143c0,0.701-0.321,1.201-0.962,1.5
		c-0.209,0.119-0.366,0.194-0.471,0.224c-0.065,0.019-0.158,0.037-0.271,0.056c1.98,1.621,3.702,3.544,5.097,5.699
		c0.117-0.321,0.21-0.658,0.277-1.013l0.09-1.008c0-1.223-0.568-2.081-1.701-2.574c0.776-0.402,1.376-0.94,1.801-1.611
		c0.425-0.672,0.638-1.418,0.638-2.239c0-0.642-0.198-1.265-0.593-1.868c-0.396-0.605-0.98-1.049-1.757-1.333
		c-0.433-0.193-0.876-0.328-1.332-0.402c-0.456-0.075-1.003-0.113-1.645-0.113c-0.82,0-1.663,0.124-2.529,0.37
		c-0.865,0.246-1.6,0.563-2.204,0.952s-1.13,0.907-1.578,1.557c-0.036,0.052-0.066,0.109-0.101,0.163
		c1.196,0.534,2.341,1.163,3.426,1.874C63.947,40.943,64.68,40.482,65.72,40.482z"/>
	<linearGradient id="SVGID_3_" gradientUnits="userSpaceOnUse" x1="50.0576" y1="87.0566" x2="50.0576" y2="37.8525">
		<stop  offset="0.0056" style="stop-color:#3266A9"/>
		<stop  offset="1" style="stop-color:#0099FF"/>
	</linearGradient>
	<path fill="url(#SVGID_3_)" d="M70.725,49.104c-0.433,1.189-1.208,2.147-2.331,2.871c-1.425,0.918-3.182,1.377-5.271,1.377
		c-1.179,0-2.175-0.176-2.988-0.525c-0.813-0.35-1.444-0.864-1.891-1.543c-0.448-0.678-0.671-1.481-0.671-2.405l0.022-0.694
		l0.156-0.693h4.367l-0.028,0.179v0.179v0.246c0,1.164,0.628,1.746,1.884,1.746c0.635,0,1.201-0.217,1.696-0.649
		c0.495-0.434,0.742-0.94,0.742-1.522c0-0.522-0.194-0.887-0.582-1.097c-0.329-0.208-1.007-0.313-2.036-0.313l0.47-2.754
		l1.141-0.067c0.083-0.011,0.154-0.022,0.221-0.033c-0.674-0.551-1.378-1.067-2.11-1.546c-0.044,0.096-0.087,0.195-0.125,0.302
		h-4.185c0.192-0.837,0.49-1.56,0.884-2.175c-3.064-1.372-6.46-2.133-10.034-2.133c-13.588,0-24.603,11.014-24.603,24.601
		c0,13.59,11.015,24.604,24.603,24.604S74.66,76.043,74.66,62.453C74.66,57.532,73.214,52.949,70.725,49.104z M59.413,59.233
		l-0.168,1.275c-0.538,2.953-1.511,5.404-2.921,7.35c-1.298,1.835-3.016,3.179-5.153,4.028c-2.138,0.851-4.494,1.274-7.067,1.274
		H33.731l4.264-24.198h10.441c1.141,0,2.204,0.073,3.189,0.218c0.984,0.146,1.868,0.364,2.651,0.655
		c1.611,0.537,2.887,1.471,3.827,2.802c0.94,1.332,1.41,2.992,1.41,4.984L59.413,59.233z"/>
</g>
<linearGradient id="SVGID_4_" gradientUnits="userSpaceOnUse" x1="107.3027" y1="105.8555" x2="93.0727" y2="16.0106">
	<stop  offset="0" style="stop-color:#B2B2B2;stop-opacity:0"/>
	<stop  offset="0.2" style="stop-color:#B2B2B2"/>
	<stop  offset="0.8" style="stop-color:#B2B2B2"/>
	<stop  offset="1" style="stop-color:#B2B2B2;stop-opacity:0"/>
</linearGradient>
<rect x="99.875" y="14.933" fill="url(#SVGID_4_)" width="0.625" height="92"/>
<script  xmlns=""></script>
<g transform="translate(0.000000,512.000000) scale(0.100000,-0.100000)">
	<path d="M1280.234,4748.803c-7.021-2.446-12.822-6.802-17.158-12.822c-7.041-9.702-6.592,5.796-6.367-238.306l0.332-222.49
		l2.344-5.117c3.467-7.48,9.697-13.828,16.953-17.393l6.357-3.135h104.258h104.268l6.367,3.135
		c7.256,3.564,13.486,9.912,16.953,17.393c2.334,5.117,2.334,5.801,2.666,97.344l0.234,92.344h109.502
		c82.861,0,110.518,0.342,113.965,1.348c6.025,1.777,14.277,10.039,16.064,16.045c1.895,6.592,1.895,159.365,0,165.942
		c-1.787,6.021-10.039,14.277-16.064,16.06c-3.447,1.006-30.996,1.343-113.965,1.343h-109.395l-0.342,32.109
		c-0.332,29.888-0.439,32.349-2.666,37.129c-3.467,7.48-9.697,13.838-16.953,17.402l-6.367,3.125l-102.588,0.225
		C1292.392,4750.698,1285.713,4750.595,1280.234,4748.803z M1417.637,4727.836c3.789-1.782,7.236-7.241,7.236-11.367
		c0-3.564-4.795-9.585-8.916-11.045c-2.568-0.889-12.49-1.343-29.004-1.343c-28.096,0-31.445,0.679-35.342,6.475
		c-3.018,4.458-3.242,6.802-0.781,11.821c3.125,6.689,5.684,7.251,35.908,7.251
		C1409.267,4729.628,1414.609,4729.292,1417.637,4727.836z M1495.127,4671.635v-11.143h-68.242c-46.621,0-69.805-0.449-72.813-1.23
		c-5.918-1.68-14.395-10.151-16.064-16.06c-1.67-6.25-1.67-159.922,0-166.152c1.67-5.908,10.146-14.395,16.064-16.064
		c2.666-0.674,14.375-1.23,28.652-1.23h24.189l0.342-22.969l0.342-22.969l3.672-3.242c4.248-3.789,10.264-4.336,14.717-1.23
		c1.563,1.006,13.604,12.822,26.66,26.094l23.857,24.316h9.375h9.248v-71.357v-71.377h-108.174h-108.174v182.876v182.896h108.174
		h108.174V4671.635z M1435.576,4608.75l3.799-3.789v-11.27c0-6.25,0.215-11.27,0.557-11.27s4.58,2.236,9.355,5.02
		c9.043,5.244,13.281,6.025,18.525,3.691c6.25-2.798,8.145-12.837,3.447-18.408c-1.436-1.67-6.23-5.132-10.586-7.578
		c-4.355-2.461-7.92-4.692-7.92-5.02c0-0.342,4.131-2.788,9.033-5.586c9.473-5.229,12.158-8.354,12.158-14.38
		c0-4.79-1.895-8.369-5.586-10.488c-5.225-3.11-9.805-2.334-18.945,3.125c-4.58,2.783-8.701,5.02-9.141,5.02
		c-0.566,0-0.898-5.02-0.898-11.255v-11.27l-3.799-3.789c-3.115-3.125-4.678-3.804-8.467-3.804s-5.361,0.679-8.467,3.804
		l-3.809,3.789v11.27c0,6.235-0.322,11.255-0.771,11.255c-0.557,0-4.688-2.236-9.268-5.02c-9.131-5.459-13.711-6.235-18.945-3.125
		c-3.691,2.119-5.586,5.698-5.586,10.488c0,6.025,2.676,9.15,12.158,14.38c4.912,2.798,9.043,5.244,9.043,5.586
		c0,0.327-3.564,2.559-7.92,5.02c-4.355,2.446-9.15,5.908-10.605,7.578c-4.678,5.571-2.783,15.61,3.467,18.408
		c5.244,2.334,9.473,1.553,18.506-3.691c4.795-2.783,9.033-5.02,9.375-5.02c0.322,0,0.547,5.02,0.547,11.27v11.27l3.809,3.789
		c3.105,3.11,4.678,3.789,8.467,3.789S1432.461,4611.86,1435.576,4608.75z M1556.025,4608.75l3.789-3.789v-11.27
		c0-6.25,0.225-11.27,0.557-11.27s4.57,2.236,9.365,5.02c9.033,5.244,13.271,6.025,18.506,3.691
		c6.25-2.798,8.145-12.837,3.467-18.408c-1.455-1.67-6.25-5.132-10.596-7.578c-4.355-2.461-7.91-4.692-7.91-5.02
		c0-0.342,4.111-2.788,9.014-5.586c9.492-5.229,12.158-8.354,12.158-14.38c0-4.79-1.895-8.369-5.566-10.488
		c-5.244-3.11-9.814-2.334-18.965,3.125c-4.57,2.783-8.691,5.02-9.141,5.02c-0.557,0-0.889-5.02-0.889-11.255v-11.27l-3.789-3.789
		c-3.125-3.125-4.688-3.804-8.486-3.804c-3.789,0-5.342,0.679-8.467,3.804l-3.789,3.789v11.27c0,6.235-0.342,11.255-0.781,11.255
		c-0.566,0-4.697-2.236-9.258-5.02c-9.15-5.459-13.721-6.235-18.965-3.125c-3.672,2.119-5.566,5.698-5.566,10.488
		c0,6.025,2.676,9.15,12.148,14.38c4.902,2.798,9.033,5.244,9.033,5.586c0,0.327-3.564,2.559-7.92,5.02
		c-4.346,2.446-9.131,5.908-10.586,7.578c-4.688,5.571-2.793,15.61,3.457,18.408c5.234,2.334,9.473,1.553,18.506-3.691
		c4.795-2.783,9.033-5.02,9.365-5.02c0.342,0,0.566,5.02,0.566,11.27v11.27l3.789,3.789c3.125,3.11,4.678,3.789,8.467,3.789
		C1551.338,4612.539,1552.9,4611.86,1556.025,4608.75z M1676.455,4608.75l3.799-3.789v-11.27c0-6.25,0.215-11.27,0.557-11.27
		c0.332,0,4.58,2.236,9.355,5.02c9.033,5.244,13.271,6.025,18.525,3.691c6.24-2.798,8.135-12.837,3.447-18.408
		c-1.445-1.67-6.24-5.132-10.596-7.578c-4.346-2.461-7.91-4.692-7.91-5.02c0-0.342,4.121-2.788,9.033-5.586
		c9.473-5.229,12.158-8.354,12.158-14.38c0-4.79-1.895-8.369-5.586-10.488c-5.234-3.11-9.814-2.334-18.945,3.125
		c-4.58,2.783-8.711,5.02-9.15,5.02c-0.566,0-0.889-5.02-0.889-11.255v-11.27l-3.799-3.789c-3.115-3.125-4.688-3.804-8.477-3.804
		s-5.352,0.679-8.467,3.804l-3.799,3.789v11.27c0,6.235-0.332,11.255-0.781,11.255c-0.547,0-4.678-2.236-9.258-5.02
		c-9.131-5.459-13.711-6.235-18.945-3.125c-3.691,2.119-5.586,5.698-5.586,10.488c0,6.025,2.686,9.15,12.158,14.38
		c4.902,2.798,9.033,5.244,9.033,5.586c0,0.327-3.574,2.559-7.92,5.02c-4.346,2.446-9.141,5.908-10.586,7.578
		c-4.697,5.571-2.803,15.61,3.447,18.408c5.244,2.334,9.492,1.553,18.516-3.691c4.785-2.783,9.033-5.02,9.365-5.02
		c0.342,0,0.557,5.02,0.557,11.27v11.27l3.799,3.789c3.115,3.11,4.678,3.789,8.467,3.789S1673.34,4611.86,1676.455,4608.75z
		 M1416.514,4294.257c8.584-3.555,10.479-13.496,3.906-20.176l-3.35-3.33h-30.117h-30.098l-3.35,3.33
		c-6.465,6.582-4.678,16.514,3.672,20.078C1362.422,4296.494,1411.045,4296.494,1416.514,4294.257z"/>
</g>
</svg>
